<mxfile host="app.diagrams.net" modified="2023-06-01T07:44:40.573Z" agent="Mozilla/5.0 (X11; Linux x86_64) AppleWebKit/537.36 (KHTML, like Gecko) Chrome/113.0.0.0 Safari/537.36" version="21.3.6" etag="yZi7UNxl8wdVLUCbOGI0" type="github">
  <diagram name="Page-1" id="EIaixEGzGGT0CJXkKg2C">
    <mxGraphModel>
      <root>
        <mxCell id="0" />
        <mxCell id="1" parent="0" />
      </root>
    </mxGraphModel>
  </diagram>
</mxfile>
